<?xml version="1.0" encoding="UTF-8" standalone="no"?>
<svg
   version="1.1"
   id="svg2"
   xml:space="preserve"
   width="582.20001"
   height="339.65332"
   viewBox="0 0 582.20001 339.65332"
   sodipodi:docname="BT_logo- Butterfly Icon - COLOR.svg"
   inkscape:version="1.1.1 (c3084ef, 2021-09-22)"
   xmlns:inkscape="http://www.inkscape.org/namespaces/inkscape"
   xmlns:sodipodi="http://sodipodi.sourceforge.net/DTD/sodipodi-0.dtd"
   xmlns="http://www.w3.org/2000/svg"
   xmlns:svg="http://www.w3.org/2000/svg"
   xmlns:rdf="http://www.w3.org/1999/02/22-rdf-syntax-ns#"
   xmlns:cc="http://creativecommons.org/ns#"
   xmlns:dc="http://purl.org/dc/elements/1.1/"><metadata
     id="metadata8"><rdf:RDF><cc:Work
         rdf:about=""><dc:format>image/svg+xml</dc:format><dc:type
           rdf:resource="http://purl.org/dc/dcmitype/StillImage" /></cc:Work></rdf:RDF></metadata><defs
     id="defs6" /><sodipodi:namedview
     pagecolor="#ffffff"
     bordercolor="#666666"
     borderopacity="1"
     objecttolerance="10"
     gridtolerance="10"
     guidetolerance="10"
     inkscape:pageopacity="0"
     inkscape:pageshadow="2"
     inkscape:window-width="1628"
     inkscape:window-height="883"
     id="namedview4"
     inkscape:pagecheckerboard="true"
     showgrid="false"
     inkscape:zoom="1.2864995"
     inkscape:cx="272.44473"
     inkscape:cy="169.84072"
     inkscape:window-x="0"
     inkscape:window-y="25"
     inkscape:window-maximized="0"
     inkscape:current-layer="layer1" /><g
     id="g10"
     inkscape:groupmode="layer"
     inkscape:label="ink_ext_XXXXXX"
     transform="matrix(1.3333333,0,0,-1.3333333,0,339.65333)"
     style="display:none"><g
       id="g1241"
       transform="matrix(0.95153888,0,0,0.96109583,111.54643,3.4751647)"><path
         d="m 76.139841,37.665023 c 1.4558,0.802 2.189,2.1532 3.0609,3.3668 0.1891,0.2633 0.2414,0.6864 0.2192,1.0262 -0.0469,0.7121 -0.1969,1.4149 -0.2828,2.1238 -0.0469,0.3903 -0.1543,0.8133 -0.0543,1.1711 0.5113,1.8231 0.4011,3.8262 1.5632,5.4621 0.0672,0.0942 0.1008,0.218 0.1289,0.334 0.3524,1.4711 1.3364,2.6059 2.0594,3.8809 0.7059,1.243 1.4141,2.4883 2.0422,3.7711 0.3016,0.616 0.3063,1.316 -0.0543,1.9609 -0.2281,0.409 -0.4519,0.8192 -0.7711,1.3973 -0.1367,-0.4883 -0.2933,-0.8422 -0.3269,-1.2094 -0.095,-1.0289 -0.5524,-1.8808 -1.1008,-2.7367 -1.8047,-2.818 -3.5801,-5.6551 -5.3231,-8.5121 -0.957,-1.568 -1.3668,-3.3078 -1.2961,-5.1461 0.0813,-2.1059 0.3688,-4.2117 -0.1421,-6.3078 -0.0383,-0.1582 0.175,-0.3789 0.2777,-0.5821 z m 5.1844,-13.9371 c -1.5219,-0.9019 -2.9079,-1.8437 -3.5844,-3.466 -0.166,-0.398 -0.3664,-0.8 -0.4332,-1.2187 -0.2266,-1.4203 -0.3613,-2.8543 -0.611,-4.2684 -0.1222,-0.6988 -0.3621,-1.3906 -0.6492,-2.0406 -0.4652,-1.0531 -1.2093,-1.3961 -2.3293,-1.1953 -0.641,0.116 -0.9625,0.5769 -1.109,1.132 -0.4476,1.6961 -0.5226,3.3652 0.2274,5.0359 0.7488,1.6692 1.4281,3.3743 2.0437,5.0973 0.5149,1.441 1.3493,2.6899 2.127,3.9789 0.1031,0.1699 1.6883,1.8899 2.8121,1.5219 0.1035,-0.034 0.2336,0.0109 0.309,0.016 0.357,0.4672 1.5988,2.332 1.2918,2.8602 -0.6059,1.0429 -1.0563,2.1238 -1.0192,3.457 -0.3785,-0.1172 -0.6246,-0.1379 -0.8003,-0.259 -0.504,-0.348 -1.043,-0.4652 -1.6481,-0.5789 -1.2992,-0.2453 -2.3016,-1.0434 -2.9684,-2.2152 -0.6707,-1.1789 -1.3535,-2.3508 -2.0066,-3.541 -0.7125,-1.2969 -1.5769,-2.3879 -3.1273,-2.7438 -0.459,-0.1051 -2.5407,-1.3062 -2.984,-1.975 -1.25,-1.8871 -2.5821,-3.7551 -4.4106,-5.123 -1.1988,-0.8961 -2.5992,-1.3864 -4.1613,-0.725 -1.048,0.4429 -1.4555,1.273 -0.9594,2.3 0.2055,0.4238 2.3785,2.6168 3.1289,3.3687 0.3043,0.3043 1.4715,1.9793 2.1516,2.052 0.9445,0.1023 1.7434,0.5863 2.4203,1.2242 0.7547,0.7097 1.4879,1.4508 2.1613,2.2371 0.8684,1.0137 1.6684,2.0848 2.6575,3.3328 -0.6579,-0.2949 -1.1457,-0.4559 -1.5711,-0.716 -2.0516,-1.2559 -4.2746,-1.9559 -6.6707,-2.043 -0.7399,-0.0269 -1.4871,0.1539 -2.1965,0.236 -0.1496,0.7171 1.314,1.546 1.6597,1.5621 1.784,0.0828 3.125,1.1211 4.5133,2.0449 1.3321,0.8879 2.7707,1.3898 4.3766,1.432 1.5883,0.0422 2.2398,3.0762 2.1656,3.259 -0.4754,1.1648 -0.3277,2.252 0.3289,3.3129 0.2274,0.368 0.7004,2.1062 0.3981,2.4531 -0.4981,0.5711 -0.5125,2.1719 -0.6059,2.4942 -0.2207,-0.2832 -0.9453,-1.7114 -1.6605,-1.9133 -0.9922,-0.2809 -2.0094,-0.566 -2.9129,-1.0438 -1.118,-0.5922 -2.1176,-1.4031 -3.1914,-2.0832 -1.425,-0.9039 -2.1993,-2.2488 -2.7778,-3.782 -0.4222,-1.1188 -0.9633,-2.1938 -1.4785,-3.275 -0.2715,-0.5699 -0.682,-0.859 -1.3961,-0.8981 -1.1898,-0.0668 -4.7851,-0.8609 -5.3422,-1.1539 -1.1211,-0.5898 -7.6234,-0.7597 -9.3687,0.509 -0.7215,0.5242 -1.1633,1.1852 -1.1797,2.1 -0.0145,0.8071 2.1098,1.441 2.7355,1.4031 1.3926,-0.0839 2.777,-0.323 4.1696,-0.3878 2.0383,-0.0942 4.0609,0.1007 6.0418,0.6269 0.5879,0.1559 1.7035,3.7461 2.5754,4.768 1.0308,1.2078 2.1546,2.3531 3.3488,3.3988 1.0125,0.8883 2.1098,1.741 3.3058,2.3352 0.9735,0.4839 2.1387,0.6257 3.2372,0.7988 0.9988,0.157 1.7386,0.6031 2.4785,1.2922 1.7125,1.5969 3.0113,3.498 4.3472,5.3859 0.8289,1.1731 1.7516,2.2789 2.6071,3.4328 0.2828,0.3821 0.5136,0.809 0.7211,1.2383 0.6777,1.4008 1.357,2.8027 1.9886,4.2258 0.3059,0.6891 0.5012,1.4262 0.7559,2.1371 1.3773,3.843 2.4195,7.7832 3.1457,11.791 0.4184,2.3078 0.5109,4.6781 0.7195,7.0219 0.1848,2.0781 0.536,4.1109 1.2543,6.0801 0.491,1.3441 0.9,2.7179 1.3293,4.084 0.666,2.1218 1.7856,3.9871 3.0789,5.783 1.4914,2.070997 3.0149,4.137997 4.2785,6.348997 1.5879,2.778 2.7086,5.796 3.5137,8.89 0.4281,1.644 0.6586,3.395 0.6231,5.091 -0.0418,1.995 -0.4289,3.974 -1.7145,5.669 -1.0309,1.357 -3.2402,4.545 -3.4406,4.655 -1.2586,0.692 -2.5168,1.386 -3.7903,2.05 -1.2183,0.634 -2.4882,0.988 -3.9019,0.954 -0.7672,-0.018 -1.5457,0.33 -2.3148,0.531 -0.6868,0.18 -1.3665,0.383 -2.0817,0.586 -0.243,-0.472 -0.4391,-0.851 -0.6281,-1.219 0.189,-0.994 0.7289,-1.764 1.4574,-2.408 0.3582,-0.317 0.4188,-0.681 0.2191,-1.067 -0.6996,-1.356 -1.8304,-2.191 -3.498,-1.356 -2.6059,1.307 -2.6738,4.601 -1.4242,6.411 0.1523,0.221 0.3344,0.421 0.5914,0.743 -1.0742,0.362 -2.0277,0.17 -2.8465,-0.249 -1.7836,-0.915 -2.9324,-2.429 -3.5039,-4.345 -0.2047,-0.687 -0.0207,-1.391 0.4828,-1.897 0.6149,-0.618 1.2961,-1.176 1.9902,-1.707 1.4844,-1.132 1.9684,-2.622 1.7497,-4.423 -0.602,-0.336 -1.1368,-0.128 -1.6649,0.021 -1.4433,0.408 -2.6781,1.215 -3.8894,2.062 -0.3598,0.252 -0.7239,0.501 -1.0582,0.786 -1.959,1.664 -2.4739,3.946 -1.4957,6.332 0.2851,0.694 0.457,1.438 0.6378,2.171 0.05,0.199 -0.0562,0.437 -0.1089,0.771 -0.5965,-0.224 -1.195,-0.304 -1.5973,-0.627 -1.1617,-0.935 -2.5566,-1.081 -3.9231,-1.332 -3.0953,-0.568 -6.1871,-1.172 -9.298,-1.636 -2.3605,-0.351 -4.7457,-0.624 -7.1277,-0.716 -1.7082,-0.065 -3.4243,0.244 -4.9246,1.225 -1.4368,0.941 -2.7297,3.525 -2.5293,5.294 0.4132,-0.106 0.8242,-0.174 1.2054,-0.318 1.2301,-0.464 2.4246,-1.038 3.6809,-1.41 0.8223,-0.243 1.7273,-0.291 2.5941,-0.282 2.6797,0.028 5.341,0.281 7.9887,0.723 1.4543,0.243 2.932,0.342 4.3965,0.531 2.1621,0.28 4.1683,1.085 6.1535,1.926 2.1797,0.924 4.3891,1.68 6.7855,1.747 1.1149,0.031 2.2309,0.066 3.3422,0.155 1.3379,0.107 2.6289,-0.142 3.9086,-0.451 2.9035,-0.702 5.7871,-1.488 8.7008,-2.141 1.6387,-0.366 3.0984,-1 4.3738,-2.085 1.3336,-1.135 2.7235,-2.208 4.0102,-3.393 2.4496,-2.255 4.098399,-5.073 5.555499,-8.036 1.3363,-2.718 1.632,-5.535 1.3082,-8.511 -0.1852,-1.701 -0.5985,-3.286 -1.3672,-4.801 -1.2278,-2.42 -2.397299,-4.869 -3.665999,-7.266 -1.0629,-2.009 -2.3067,-3.922997 -3.3371,-5.947997 -1.1993,-2.3559 -1.9317,-4.8988 -2.5926,-7.4539 -0.2504,-0.9672 -0.4254,-1.9539 -0.6742,-2.9211 -0.8606,-3.3399 -0.47,-6.7629 -0.6829,-10.1461 -0.2636,-4.1879 -1.3285,-21.6457 -3.4117,-24.2109 -0.3965,-0.4879 -0.6765,-1.075 -0.9832,-1.6321 -0.3828,-0.6969 -0.7832,-1.3898 -1.0914,-2.1211 -0.323,-0.7636 -0.6812,-1.5527 -0.7855,-2.3609 -0.2442,-1.8981 -0.3711,-3.8117 -0.495,-5.7219 -0.0613,-0.9441 -0.0105,-1.8961 -0.0105,-3.1648 0.4516,0.3918 0.8012,0.55 0.9055,0.8078 1.0965,2.7121 2.6953,5.1492 4.1343,7.673 0.1571,0.2758 0.3364,0.57 0.5797,0.759 1.025,0.8012 1.2649,1.9531 1.2711,3.111 0.0114,2.007 0.15,3.9921 0.5914,5.948 0.3942,1.7461 0.1231,3.502 0.1657,5.2539 0.0296,1.2281 0.1382,2.468 0.3613,3.675 0.398,2.1582 1.0109,4.2789 1.3402,6.4449 0.2563,1.6864 0.2949,3.4192 0.2914,5.1313 -0.0043,2.0347 -0.2031,4.0679 -0.2351,6.1039 -0.0676,4.3051 0.7074,8.4488 2.8484,12.223 1.7856,3.1469 2.9148,6.564997 4.357399,9.853997 0.5907,1.347 1.3047,2.642 1.9778,3.953 1.3691,2.666 3.3611,6.876 3.0761,9.937 -0.058,0.621 0.063,2.819 -0.296,4.081 -0.109,3.573 -3.1036,6.09 -4.4028,7.804 -1.940999,2.56 -6.208199,6.356 -6.935899,6.836 -2.5633,1.688 -6.2871,3.304 -8.9176,4.884 -1.3934,0.836 -3.5668,2.296 -5.0684,2.932 -2.0918,0.886 -4.6722,0.807 -6.8109,1.571 -2.0258,0.725 -4.1297,1.234 -6.1406,1.994 -3.5469,1.338 -3.8157,1.991 -7.3008,3.481 -2.3199,0.991 -5.0871,2.134 -6.936,3.853 -0.4617,0.429 -3.1332,2.379 -3.7414,2.562 -2.7281,0.821 -4.8187,0.887 -3.964,1.071 0.2707,0.058 5.0219,0.243 5.2887,0.316 0.0664,0.018 0.1152,0.1 0.1992,0.176 -0.5059,0.592 -3.5782,2.042 -4.168,2.731 0.5781,0.314 3.6426,-0.284 4.1684,0.001 -0.5891,1.889 -1.509,3.519 -2.3852,5.203 -1.1406,2.192 -2.5754,4.38 -2.5074,7.022 0.025,0.985 0.1621,1.988 0.4074,2.942 0.5563,2.164 1.2992,4.268 2.3773,6.241 0.5293,0.968 1.152,1.808 2.2305,2.243 1.3903,0.56 2.5176,-0.233 2.3613,-1.727 -0.0492,-0.47 -0.148,-0.952 -0.323,-1.388 -0.6273,-1.555 -1.3984,-3.06 -1.9145,-4.649 -0.3488,-1.077 -0.5476,-2.275 -0.4832,-3.4 0.1254,-2.197 0.6243,-4.367 1.545,-6.371 1.1996,-2.612 2.9195,-4.801 5.3742,-6.446 2.4402,-1.636 5.0687,-2.838 7.7437,-3.98 0.8078,-0.346 1.6121,-0.699 2.4223,-1.038 0.3641,-0.152 0.7445,-0.345 1.0687,0.065 0,0.094 0.0301,0.214 -0.0042,0.237 -1.4989,1.014 -1.5399,2.654 -1.6012,4.164 -0.0481,1.17 0.1875,2.408 0.5719,3.522 0.355,1.03 1.0511,1.949 1.646,2.885 0.2981,0.468 0.7059,0.866 1.0649,1.295 0.8238,0.985 1.9269,1.383 3.1625,1.486 0.5105,0.042 1.025,0.049 1.5684,0.073 0.2269,-0.36 -0.0071,-0.64 -0.204,-0.938 -0.2136,-0.325 -0.4746,-0.642 -0.5918,-1.003 -0.489,-1.509 -1.0109,-3.015 -1.3726,-4.557 -0.5145,-2.189 0.2336,-4.227 0.8527,-6.307 0.6473,-2.173 1.9727,-3.542 3.9746,-4.474 0.8864,-0.413 1.5996,-1.182 2.4364,-1.721 0.6636,-0.429 1.4035,-0.737 2.0945,-1.127 1.4234,-0.803 2.9172,-1.513 4.2289,-2.471 10.6195,-5.959 8.2707,-3.005 16.454699,-11.904 7.2663,-7.816 6.8613,-10.316 7.5963,-13.431 0.644,-1.984 0.176,-4.759 -0.131,-6.874 -0.561,-3.86 -1.681,-7.556 -2.957,-11.222 -0.629,-1.808 -2.225,-4.302 -2.812,-6.123997 -0.723,-2.2411 -1.8334,-2.9848 -2.6869,-5.1739 -0.4418,-1.1332 -2.657099,-3.993 -2.501999,-18.993 0.0149,-2.925 -0.4398,-5.8 -1.2531,-8.6269 -0.5168,-1.7981 -0.911,-3.641 -1.2262,-5.4864 -0.5754,-9.7878 2.3719,-9.6039 3.515599,-11.932 0.7567,-1.5398 1.4719,-3.1027 2.2782,-4.6168 1.1544,-2.1672 1.3964,-4.457 1.1594,-6.8578 -0.311,-3.1402 0.012,-6.2262 1.087,-9.2004 0.251,-0.6937 0.682,-1.3609 1.161,-1.9308 1.753,-2.0829 1.823,-2.0399 4.841,-3.029 1.888,-0.6191 3.722,-1.4019 5.613,-2.125 0,-0.5402 2.207,-0.9941 0.162,-11.598 -0.04,-0.1949004 1.283,-1.4480504 1.675,-1.8949204 0.275,-0.31524 6.583,-4.58594 6.913,-6.08594 0.239,-1.08710996 -1.482,-3.02226496 -2.026,-2.58007746 -4.517,7.67890746 -10.569,6.85312746 -10.954,11.03713786 1.075,2.7187 4.018,3.9078 -0.291,8.7629 -2.461,2.4109 -5.92,1.0828 -6.176,2.0879 -0.04,0.155 0.99,3.0679 -2.2441,2.546 -0.1977,0.0301 -2.1938,2.225 -2.261,2.6911 -0.2375,-0.3442 -0.4265,-0.4961 -0.45,-0.6711 -0.1273,-0.9532 -0.1687,-1.8961 0.22,-2.825 0.8668,-2.0731 1.8078,-5.2039 1.514,-7.418 -0.1125,-0.8461 -0.5719,-4.402 -1.4312,-5.1738 -0.0532,-1.2492504 -3.566799,-3.4023704 -3.740699,-3.3890904 0.1739,-0.01328 -0.214,1.79883 -0.1125,2.39809 0.3731,2.2007004 1.3801,4.9808004 1.8715,7.1558004 0.371899,1.643 -1.9457,6.0512 -1.6511,7.3762 0.3023,1.3617 -0.3118,2.9 -0.0551,4.2726 0.0359,0.193 1.014,2.8793 0.9762,4.125 -0.0243,0.7891 1.562799,4.1364 1.292099,5.3133 -0.236699,1.0309 0.4727,4.409 -0.0812,5.1028 -0.757799,-1.6481 -1.417199,-3.2661 -2.231299,-4.802 -0.916,-1.7301 -1.3644,-3.5551 -1.5726,-5.4789 -0.1547,-1.4289 -0.3152,-5.4961 -1.741,-6.3309 -1.0102,0.3559 -1.9914,3.9 -1.9508,5.0598 0.0605,1.7082 -0.0367,3.4121 0.4101,5.1191 0.6649,2.5418 1.0954,5.145 1.6497,7.718 0.0902,0.416 0.8054,1.9121 0.4214,2.3391 -0.1879,-0.159 -2.8175,-3.6992 -4.1121,-5.2051 -1.7269,-2.009 -3.1019,-4.2512 -4.582,-6.4262 -0.1109,-0.1629 -0.0852,-0.4418 -0.0703,-0.6636 0.0887,-1.3082 0.1699,-2.618 0.307,-3.9211 0.043,-0.409 0.1723,-0.8551 0.4028,-1.186 0.5445,-0.7793 1.171,-1.5019 1.7714,-2.241 0.1243,-0.1539 0.2614,-0.3101 0.4243,-0.4141 1.3953,-0.8992 3.4175,-4.5218 3.5316,-4.9839 0.4004,-1.6243 0.6453,-3.2993 1.1988,-4.868 0.5914,-1.6762 0.4567,-6.4723 0.4192,-7.1641004 -0.0821,-0.01286 -2.9161,1.4578004 -3.3442,2.1942004 -0.4207,0.7238 -0.3316,5.5039 -0.659,6.1179 -0.6019,1.1278 -1.3328,2.2899 -1.3777,3.6481 -0.032,0.9668 -0.3812,1.666 -1.2832,2.1137 -0.7117,0.3543 -1.343,0.8703 -2.0543,1.225 -0.6918,0.3453 -0.9672,0.1632 -1.0117,-0.5731 -0.0817,-1.3578 -0.1332,-2.7156 -0.2067,-4.0738 -0.0304,-0.5629 0.125,-0.927 0.6805,-1.2481 0.893,-0.5129 1.6707,-1.223 2.5262,-1.8078 0.773,-0.5293 1.1129,-1.2562 1.0465,-2.1531 -0.0774,-1.043 1.5593,-6.1300804 0.7222,-7.4968704 -0.3316,-0.54219 -0.2433,-1.39297 -0.2047,-2.09532 0.0375,-0.6707 -0.0769,-1.25273 -0.4234,-1.81562 -0.3082,-0.50117 -0.7156,-0.69531 -1.3094,-0.60508 -1.314,0.19805 -2.4218,1.15586 -2.5488,2.48008 -0.1406,1.46679 -0.1055,2.94883 -0.1476,4.42501 -0.0598,2.1277004 -0.1973,4.2297004 -1.5454,6.0359004 -0.4433,0.5938 -0.9445,1.041 -1.65,1.3199 -1.4398,0.5692 -1.707,1.0961 -1.3453,2.5969 0.2711,1.1242 0.6219,2.2289 0.9274,3.3449 0.0597,0.218 0.0765,0.4473 0.1129,0.6711"
         style="fill:#6f1812;fill-opacity:1;fill-rule:nonzero;stroke:none;stroke-width:0.1"
         id="path22" /><path
         d="m 4.080841,167.68802 c 0.513672,0.908 5.08594,3.216 6.11016,3.748 0.49531,0.258 11.06444,2.858 16.40464,-5.567 0.0313,-0.07 0.0211,-0.159 0.0481,-0.233 1.3269,-3.673 -4.0063,-4.628 -3.7551,-4.972 2.9902,-5.306 -4.3969,-7.68 -6.2816,-6.313 -1.7375,0.236 -3.16878,3.649 -4.48948,6.952 -1.00469,2.511 -7.43047,6.093 -8.03672,6.385"
         style="fill:#1c6434;fill-opacity:1;fill-rule:nonzero;stroke:none;stroke-width:0.1"
         id="path42" /><g
         id="g1197"><path
           d="m 109.60284,66.199023 c -0.098,-0.0601 -0.196,-0.1199 -0.294,-0.18 0.799,-1.809 1.487,-3.6782 2.431,-5.4071 0.832,-1.523 2.18,-2.6949 3.812,-3.2961 1.621,-0.5957 2.836,-1.5789 3.844,-2.9187 0.234,-0.311 0.535,-0.5852 0.849,-0.818 1.074,-0.7973 2.265,-1.2832 3.618,-1.4223 1.465,-0.1519 2.916,-0.4378 4.38,-0.5976 0.596,-0.066 1.201,0.0629 1.374,0.8476 -0.853,0.925 -1.682,1.8391 -2.528,2.7383 -1.259,1.336 -2.834,2.0301 -4.638,2.2578 -0.951,0.12 -1.904,0.2403 -2.851,0.3879 -1.619,0.2532 -3.028,0.9711 -4.261,2.0332 -1.7,1.466 -3.244,3.0789 -4.556,4.9078 -0.365,0.509 -0.785,0.9793 -1.18,1.4672 z m 9.315,117.655997 c 0.128,0.051 0.182,0.055 0.198,0.081 0.971,1.642 2.637,2.261 4.293,2.841 1.355,0.475 2.767,0.21 4.156,0.083 0.143,-0.013 0.294,-0.133 0.408,-0.239 1.193,-1.118 1.95,-2.403 1.704,-4.133 -0.123,-0.857 -0.725,-1.215 -1.395,-1.483 -0.591,-0.238 -0.961,0.225 -1.319,0.605 -1.606,1.698 -3.46,1.738 -5.277,0.246 -0.794,-0.653 -1.154,-1.435 -1.483,-2.367 -0.724,-2.053 -0.796,-4.23 -1.366,-6.305 -0.053,-0.192 -0.051,-0.401 -0.12,-0.586 -0.498,-1.331 -0.616,-2.695 -0.358,-4.235 0.755,0.213 1.552,0.317 2.233,0.654 1.547,0.767 3.134,0.748 4.787,0.573 3.016,-0.32 6.04,-0.561 9.061,-0.836 0.476,-0.044 0.957,-0.064 1.428,-0.144 2.541,-0.428 4.894,0.112 7.191,1.222 2.596,1.256 5.048,2.735 7.439,4.342 1.891,1.272 3.935,2.282 6.079,3.067 1.1,0.403 2.251,0.599 3.414,0.456 1.619,-0.197 3.272,-0.33 4.582,-1.504 0.657,-0.588 1.088,-1.273 1.029,-2.181 -0.056,-0.881 -0.369,-1.147 -1.234,-1.025 -0.39,0.054 -0.776,0.185 -1.149,0.32 -0.487,0.177 -0.966,0.38 -1.439,0.594 -2.06,0.929 -4.123,0.741 -6.178,0.005 -2.676,-0.957 -4.888,-2.672 -7.128,-4.354 -1.146,-0.86 -2.348,-1.667 -3.603,-2.355 -1.571,-0.862 -3.217,-1.587 -4.841,-2.352 -1.215,-0.572 -2.478,-0.853 -3.838,-0.613 -1.728,0.305 -3.462,0.571 -5.197,0.829 -0.534,0.079 -1.117,0.254 -1.582,-0.342 0.123,-0.231 0.226,-0.489 0.384,-0.708 0.776,-1.077 0.914,-2.277 0.717,-3.546 -0.043,-0.276 -0.126,-0.545 -0.181,-0.82 -0.656,-3.305 -0.655,-3.307 -3.291,-5.222 -0.446,-0.324 -0.897,-0.586 -1.109,-1.187 -0.124,-0.351 -0.615,-0.571 -0.927,-0.838 -1.345,1.14 -1.454,1.941 -0.604,3.375 0.567,0.958 1.034,1.977 1.616,2.926 0.591,0.963 0.779,2.022 0.76,3.094 -0.021,1.219 -0.607,2.281 -1.648,2.895 -1.202,0.707 -2.523,0.855 -3.933,0.445 -1.578,-0.46 -2.684,-1.52 -3.814,-2.594 -0.4,-0.379 -0.824,-0.741 -1.271,-1.063 -0.65,-0.47 -1.045,-1.31 -0.755,-2.083 0.326,-0.87 0.182,-1.618 -0.203,-2.414 -0.272,-0.564 -0.417,-1.19 -0.682,-1.977 0.533,0.07 0.908,0.119 1.283,0.171 1.616,0.227 2.524,-0.22 3.143,-1.723 0.467,-1.134 0.852,-2.314 1.146,-3.504 0.137,-0.555 0.023,-1.193 -0.068,-1.779 -0.187,-1.209 -0.802,-1.717 -2.024,-1.764 -1,-0.039 -1.37,0.238 -1.309,1.235 0.069,1.111 -0.129,2.138 -0.541,3.152 -0.457,1.127 -1.254,1.464 -2.381,1.002 -0.787,-0.323 -1.332,-0.874 -1.646,-1.648 -1.007,-2.491 -1.411,-5.021 -0.144,-7.534 0.699,-1.386 1.523,-2.711 2.352,-4.026 0.229,-0.365 0.676,-0.593 1.113,-0.96 0.227,0.39 0.439,0.604 0.48,0.846 0.314,1.87 1.382,3.385 2.321,4.952 0.655,1.092 1.413,2.1 2.345,3.01 0.901,0.881 1.548,2.016 2.343,3.011 0.396,0.496 0.814,1.007 1.322,1.375 2.067,1.494 4.154,2.961 6.274,4.378 0.552,0.369 1.235,0.561 1.88,0.766 2.777,0.881 5.577,1.693 8.336,2.624 0.963,0.324 1.904,0.199 2.83,0.145 2.557,-0.151 5.066,-0.571 7.371,-1.818 1.833,-0.991 2.762,-2.582 3.186,-4.544 0.008,-0.039 0.026,-0.083 0.016,-0.118 -0.406,-1.373 -0.803,-2.749 -1.227,-4.116 -0.445,-1.435 -1.515,-2.239 -2.791,-2.934 -1.068,-0.581 -2.18,-0.767 -3.336,-0.826 -1.451,-0.072 -3.541,0.998 -3.951,3.001 -0.319,1.557 0.062,2.958 0.607,4.312 0.587,1.46 2.217,1.755 3.538,0.683 -0.22,-0.337 -0.43,-0.703 -0.682,-1.036 -0.615,-0.809 -0.882,-1.682 -0.617,-2.695 0.159,-0.607 0.532,-0.977 1.134,-1.101 0.939,-0.193 1.714,-0.102 2.453,0.72 1.591,1.769 1.976,4.208 0.787,6.272 -0.472,0.821 -1.269,1.084 -2.143,1.084 -1.158,0 -2.316,-0.063 -3.473,-0.117 -2.111,-0.098 -4.057,-0.812 -5.96,-1.657 -1.423,-0.631 -2.845,-1.267 -4.241,-1.954 -0.819,-0.403 -1.628,-0.853 -2.372,-1.379 -1.885,-1.335 -3.837,-2.606 -5.562,-4.131 -1.491,-1.316 -2.568,-3.023 -3.389,-4.885 -1.191,-2.7 -1.866,-5.529 -2.106,-8.438 -0.164,-1.979 -0.041,-3.986 0.028,-5.979 0.016,-0.433 0.341,-0.86 0.544,-1.28 0.047,-0.097 0.245,-0.145 0.258,-0.233 0.175,-1.167 1.216,-1.262 2.02,-1.613 0.693,-0.301 1.428,-0.507 2.148,-0.748 3.245,-1.082 5.158,-3.971 4.854,-7.359 -0.112,-1.237 -0.333,-2.442 -0.963,-3.55 -1.138,-1.999 -3.069,-2.76 -4.939,-1.903 -0.104,0.048 -0.187,0.144 -0.297,0.23 -0.181,1.062 0.064,2.05 0.528,3.003 0.367,0.755 0.75,1.503 1.077,2.275 0.416,0.985 0.149,1.517 -0.872,1.8 -1.085,0.3 -1.941,0.099 -2.769,-0.813 -1.048,-1.154 -1.775,-2.414 -2.296,-3.869 -0.752,-2.102 -1.684,-4.139 -2.445,-6.237 -0.556,-1.535 -0.905,-3.143 -1.447,-4.683 -0.62,-1.762 -1.344,-3.486997 -2.039,-5.222097 -0.37,-0.9239 -0.775,-1.8329 -1.16,-2.75 -0.062,-0.1457 -0.075,-0.3188 -0.158,-0.45 -1.55,-2.4539 -1.556,-5.3329 -2.213,-8.0321 -0.608,-2.5019 0.016,-5.0207 -0.071,-7.5289 -0.052,-1.4828 -0.072,-2.9469 0.442,-4.364 0.667,-1.8399 1.601,-3.5379 2.605,-5.22 0.95,-1.5937 2.257,-2.78 3.677,-3.8789 0.497,-0.3851 6.982,-3.0949 9.61,-4.2441 1.43,-0.625 2.679,-1.5059 3.674,-2.7738 0.881,-1.1243 1.922,-2.127 2.918,-3.1602 0.474,-0.4918 1.107,-0.6578 1.73,-0.2379 1.224,0.8231 2.514,1.55 3.724,2.3918 0.944,0.6582 4.339,1.4621 4.964,1.5961 1.653,0.3531 2.997,1.1992 4.157,2.4371 0.809,0.8621 1.712,1.666 2.685,2.3328 0.825,0.566 1.839,0.4582 2.784,0.1703 0.406,-0.1242 -3.274,-5.3761 -3.759,-5.6421 -1.012,-0.559 -2.023,-1.1282 -3.074,-1.6071 -1.449,-0.6597 -2.915,-1.298 -4.416,-1.8269 -0.567,-0.1989 -4.272,-3.495 -4.5,-3.761 -0.678,-0.7941 -0.629,-0.873 -0.09,-1.7699 0.765,-1.2711 1.797,-2.2152 3.108,-2.8961 0.564,-0.2922 1.087,-0.6699 1.616,-1.0289 1.883,-1.2781 4.026,-1.7391 6.235,-1.8922 1.532,-0.107 3.017,0.2461 4.405,0.9321 1.157,0.5718 2.338,1.0511 3.664,0.9691 0.301,-0.0191 -0.743,-3.5551 -2.742,-4.3102 -2.623,-0.9918 -5.288,-1.516 -8.074,-1.4148 -0.497,0.018 -1.034,0.1918 -1.465,0.4418 -0.826,0.4793 -1.6,1.0519 -2.378,1.6109 -1.591,1.1434 -6.023,3.0262 -6.267,3.5051 -0.721,1.4102 -2.65,4.6941 -3.04,4.6121 -1.091,-0.2301 -2.21,-0.368 -3.27,-0.7 -1.403,-0.4379 -2.957,-0.3199 -4.243,-1.1711 -0.129,-0.0859 -0.27,-0.1539 -0.5,-0.284 0.466,-1.1918 0.888,-2.3847 1.4,-3.5379 0.3,-0.6742 5.771,-2.35 7.12,-2.6152 1.016,-0.2008 4.125,-0.859 4.497,-1.2269 0.633,-0.6278 3.7,-1.9321 4.177,-2.7321 0.499,-0.8347 1.428,-0.9816 2.319,-1.0226 1.691,-0.0774 3.337,-0.3403 4.898,-1.0184 0.422,-0.184 0.817,-0.4316 1.471,-0.784 -1.545,-0.8988 -4.518,-2.516 -4.666,-2.4859 -0.872,0.175 -7.823,2.6769 -8.21,3.1 -1.117,1.2242 -5.546,2.5941 -6.302,2.5769 -0.998,-0.0238 -3.69,0.45 -4.086,0.4774 -0.369,-0.8731 -0.151,-1.675 0,-2.4281 0.066,-0.3321 3.089,-2.6731 4.112,-3.6672 0.266,-0.259 -0.371,-1.418 -0.556,-1.6258 -1.508,-1.6973 -3.805,-1.3172 -4.959,0.6598 -1.723,2.9492 -2.491,6.1961 -3.31,9.45 -0.72,2.8632 -1.591,5.691 -2.86,8.366 -0.352,0.7422 -0.913,1.3871 -1.405,2.057 -0.307,0.4172 -0.713,0.7652 -0.991,1.1981 -1.012,1.5839 -2.548,2.6332 -3.886,3.8832 -0.175,0.1628 -0.362,0.3386 -0.576,0.4289 -1.504,0.6308 -5.254,2.1418 -5.718,2.3238 0,-0.282 1.392,-3.1328 2.772,-3.8731 1.819,-0.9769 3.509,-2.1957 5.238,-3.3367 0.249,-0.164 1.299,-2.2261 1.652,-2.9812 0.084,-0.1797 0.208,-0.3438 0.281,-0.5289 1.684,-4.2731 2.282,-8.634 1.003,-13.1328 -0.103,-0.3582 -0.282,-0.6954 -0.489,-1.1922 -1.179,1.0371 -1.394,2.2742 -1.547,3.5101 -0.168,1.3457 -0.245,2.702 -0.369,4.0539 -0.092,0.993 -0.655,3.959 -0.964,4.3489 -1.053,1.33 -2.165,2.614 -3.315,3.9882 -0.161,-0.2461 -0.268,-0.3332 -0.27,-0.4211 -0.046,-1.998 -0.056,-3.9968 -0.129,-5.9929 -0.035,-0.975 0.206,-1.802 0.886,-2.5153 0.849,-0.8898 1.181,-1.9378 1.035,-3.1859 -0.179,-1.5367 1.017,-3.4738 2.467,-4.009 1.302,-0.4789 2.346,-1.1238 2.733,-2.5937 0.095,-0.3621 1.869,-1.1223 2.301,-1.1852 1.033,-0.148 1.94,-0.5601 2.559,-1.3969 1.26,-1.7031 2.809,-3.014 4.851,-3.7132 -0.249,-0.595 -0.677,-0.6438 -1.121,-0.6661 -0.877,-0.0449 -1.76,-0.1769 -2.629,-0.1117 -0.652,0.05 -1.387,0.2059 -1.908,0.5688 -1.918,1.3332 -4.05,2.2222 -6.112,3.2722 -1.724,0.8778 -3.234,2.1789 -4.831,3.3047 -0.156,0.1102 -0.271,0.2953 -0.373,0.4641 -2.029,3.3691 -3.083,6.993 -2.823,10.9512 0.05,0.757 0.165,3.1531 -0.001,3.5379 -0.99,2.2859 -2.289,4.3839 -3.968,6.2359 -1.1255,1.243 -2.2739,2.4652 -3.3634,3.7402 -0.2633,0.3071 -0.407,0.7699 -0.4761,1.1828 -0.458999,2.7481 -0.325399,5.47 0.2078,8.2121 0.6097,3.134 1.0144,6.3071 1.557,9.4551 0.2648,1.5391 0.3484,3.0828 0.4402,4.6379 0.0914,1.5469 0.4493,3.0809 0.7438,4.6102 0.2707,1.4058 0.6125,2.7968 0.9227,4.1949 0.37,1.673 0.744,3.3469 1.11,5.0219 0.247,1.1308 1.921,6.0718 2.6,7.373997 1.105,2.116 7.436,13.731 6.428,23.778 -0.494,3.237 1.321,7.059 -9.518,16.043 -1.3923,1.801 -2.8322,3.606 -4.7357,4.885 -1.751899,1.177 -3.621099,2.192 -5.489399,3.181 -1.1579,0.612 -2.4821,0.925 -3.6047,1.587 -1.6696,0.985 -3.4309,1.871 -4.7657,3.351 -0.7046,0.782 -0.9816,1.748 -1.1441,2.726 -0.1367,0.82 -0.5066,1.403 -1.1586,1.865 -0.6172,0.436 -1.2621,0.846 -1.8148,1.355 -0.3274,0.3 -0.6285,0.744 -0.7145,1.169 -0.2125,1.052 -0.2836,2.133 -0.432,3.201 -0.1324,0.949 -0.2922,1.894 -0.4391,2.84 -0.1254,0.807 0.1129,1.06 0.8969,0.912 0.4312,-0.081 0.8547,-0.207 1.277,-0.328 0.648,-0.184 1.023,-0.546 1.3031,-1.235 0.6969,-1.711 1.7636,-3.227 3.173,-4.433 1.2039,-1.031 1.8192,-2.28 1.9043,-3.836 0.0297,-0.543 0.1192,-1.082 0.1918,-1.714 0.6324,0.031 1.1348,0.056 1.7981,0.091 -0.1493,0.399 -0.2289,0.69 -0.361,0.954 -1.0441,2.085 -1.4863,4.289 -1.1898,6.599 0.1055,0.822 0.4183,1.621 0.6941,2.41 0.0942,0.27 0.3633,0.48 0.7477,0.961 0.4246,-2.134 0.4867,-4.11 1.825,-5.67 1.2148,-1.416 1.9211,-3.31 4.0047,-4.112 0,0.477 -0.0055,0.856 7e-4,1.233 0.0352,2.196 -0.0703,4.406 0.1461,6.584 0.2707,2.728 0.659,5.447 1.2176,8.147 0.359,1.734 0.2942,3.566 0.3059,5.355 0.0094,1.393 -0.1649,2.785 -0.2418,4.179 -0.1262,2.267 -0.8832,4.369 -1.6879,6.457 -0.2578,0.668 -0.5715,1.316 -0.8664,1.969 -1.3688,3.036 -3.3559,5.604 -5.9113,7.725 -1.2918,1.073 -2.843,1.7 -4.4754,1.889 -1.5192,0.176 -3.0278,-0.163 -4.3067,-1.119 -1.7582,-1.316 -3.1933,-2.868 -3.8457,-5.048 -0.3187,-1.066 -0.1816,-2.05 0.2149,-3.032 0.2226,-0.553 0.509,-1.079 0.7578,-1.621 0.4195,-0.914 0.1414,-1.806 -0.1586,-2.67 -0.0563,-0.161 -0.4703,-0.327 -0.6785,-0.286 -1.4778,0.29 -2.5778,0.988 -3.2782,2.462 -0.7988,1.681 -0.9671,3.468 -1.13,5.225 -0.1532,1.642 0.5261,3.165 1.6429,4.464 1.809,2.104 4.0786,3.377 6.7364,4.103 2.0422,0.558 4.1152,0.709 6.1703,0.45 1.5293,-0.194 3.0113,-0.792 4.2789,-1.755 2.1308,-1.619 3.7172,-3.716 5.059,-5.99 1.2359,-2.097 2.5617,-4.176 3.476899,-6.415 0.9586,-2.342 1.7692,-4.799 1.6813,-7.419 -0.0989,-2.951 -0.1856,-5.902 -0.2696,-8.852 -0.0293,-1.037 0.0489,-2.084 -0.0687,-3.11 -0.2137,-1.863 -0.5555,-3.711 -0.8067,-5.57 -0.1761,-1.3 -0.3027,-2.608 -0.423,-3.914 -0.0184,-0.202 0.118,-0.419 0.3973,-0.657 0.2363,0.563 0.6144,1.109 0.6797,1.69 0.1214,1.093 0.7718,1.818 1.466,2.525 1.4135,1.442 3.0675,2.24 5.2915,1.738 -0.208,-0.496 -0.35,-0.989 -0.604,-1.414 -0.841,-1.403 -1.706,-2.793 -2.595,-4.166 -0.573,-0.887 -0.9718,-1.82 -1.1089,-2.875 -0.1078,-0.83 -0.4043,-1.649 -0.4102,-2.474 -0.0187,-2.558 0.5774,-4.904 2.6791,-6.623 0.179,-0.146 0.307,-0.353 0.483,-0.559 0.488,0.079 0.735,0.253 0.55,0.801 -0.19,0.566 -0.316,1.153 -0.482,1.728 -0.383,1.321 0.027,2.518 0.556,3.701 0.585,1.309 1.169,2.618 1.738,3.934 0.489,1.134 0.926,2.291 1.439,3.414 0.732,1.604 1.087,3.299 1.259,5.033 0.107,1.068 0.065,2.151 0.176,3.218 0.075,0.716 -0.047,1.332 -0.423,1.936 -1.092,1.762 -2.168,3.535 -3.243,5.307 -0.193,0.319 -0.354,0.658 -0.557,1.038 1.449,0.671 2.61,0.277 3.762,-0.356 1.259,-0.693 1.305,-2.12 2.022,-3.361 0.185,0.327 0.364,0.52 0.405,0.739 0.119,0.641 0.353,1.075 1.08,1.246 0.741,0.176 0.883,0.505 0.741,1.251 -0.415,2.166 -0.991,4.267 -2.166,6.181 -0.896,1.46 -1.755,2.956 -2.475,4.507 -1.132,2.438 -1.88,5.017 -2.244,7.682 -0.168,1.235 0.39,2.394 1.057,3.366 3.924,5.685 10.952,4.28 11.223,4.139 1.449,-0.758 2.932,-1.513 3.717,-3.054 0.301,-0.591 0.543,-1.269 0.588,-1.922 0.12,-1.71 0.131,-3.428 0.146,-5.144 0.003,-0.293 -0.127,-0.633 -0.302,-0.874 -0.745,-1.028 -1.734,-1.757 -2.936,-2.168 -0.294,-0.101 -0.632,-0.135 -0.942,-0.111 -0.805,0.06 -1.152,0.493 -0.962,1.289 0.139,0.575 0.399,1.127 0.652,1.666 0.27,0.578 1.224,1.726 1.534,2.286 0.842,1.528 0.07,2.555 -0.531,4.046 -0.379,0.941 -1.38,1.568 -2.393,1.855 -1.078,0.305 -1.99,0.255 -3.228,0.044 -1.24,-0.283 -3.592,-1.222 -3.664,-4.351 0.297,-2.027 1.307,-3.368 2.079,-4.961 0.787,-1.791 1.632,-3.556 2.434,-5.34 0.518,-1.152 0.52,-1.179 1.736,-2.25"
           style="fill:#6f1812;fill-opacity:1;fill-rule:nonzero;stroke:none;stroke-width:0.1"
           id="path24" /><path
           d="m 147.26484,161.89602 c 2.705,0.413 6.523,5.614 14.988,7.727 3.106,0.723 5.993,-0.295 8.904,-1.104 0.636,-0.177 5.915,-4.394 1.895,-8.383 -2.007,-1.625 -4.035,-2.289 -4.567,-1.625 4.093,-0.578 4.517,-4.954 2.387,-7.113 -2.139,-2.878 -5.53,-2.457 -7.393,-1.429 -2.386,1.318 -5.616,5.457 -8.467,8.459 -1.878,0.873 -6.032,3.221 -7.747,3.468"
           style="fill:#1c6434;fill-opacity:1;fill-rule:nonzero;stroke:none;stroke-width:0.1"
           id="path26" /><path
           d="m 161.74784,108.78902 c -0.45,0.439 -12.922,6.267 -13.447,6.936 -5.107,3.932 -1.037,9.939 1.358,10.006 1.911,0.053 3.834,-0.803 4.367,-1.088 0.476,-0.256 -0.221,1.541 1.981,3.76 1.762,1.489 3.513,1.839 5.395,1.084 7.816,-6.253 0.589,-20.344 0.346,-20.698"
           style="fill:#1c6434;fill-opacity:1;fill-rule:nonzero;stroke:none;stroke-width:0.1"
           id="path28" /><path
           d="m 173.00184,196.71302 c -1.545,-0.881 -3.875,-0.168 -4.828,0.582 -0.473,0.372 -4.258,6.008 0.971,10.096 0.938,1.527 4.09,2.238 5.003,7.211 0.881,3.908 0.489,6.536 0.6,7.013 0.446,-0.429 2.422,-2.774 3.13,-3.586 1.099,-1.26 2.312,-2.426 3.345,-3.735 4.766,-7.233 4.456,-10.893 4.055,-13.068 -0.567,-2.491 -0.648,-3.636 -2.3,-5.195 -0.434,-0.409 -2.542,-1.214 -4.089,-0.75 -2.147,0.613 -2.371,1.229 -2.952,2.509 -0.351,2.776 -1.598,-0.598 -2.935,-1.077"
           style="fill:#1c6434;fill-opacity:1;fill-rule:nonzero;stroke:none;stroke-width:0.1"
           id="path30" /><path
           d="m 133.60384,223.63002 c 0.32,0.71 -3.041,-0.449 -3.744,2.667 -1.155,5.127 2.973,7.138 5.874,7.113 8.934,-0.438 11.412,-1.217 13.937,-2.022 1.107,-0.452 1.402,-0.857 1.885,-1.723 -0.66,-0.35 -4.866,-3.979 -5.017,-4.179 -0.756,-1.004 -1.214,-3.15 -2.253,-4.648 -0.565,-0.814 -2.426,-5.076 -9.747,-5.093 -1.981,0.329 -3.247,1.099 -2.862,4.309 0.605,2.405 1.972,3.186 1.927,3.576"
           style="fill:#1c6434;fill-opacity:1;fill-rule:nonzero;stroke:none;stroke-width:0.1"
           id="path32" /><path
           d="m 179.44884,152.34702 c -0.789,0.38 -4.172,0.214 -4.524,1.788 -2.026,1.736 0.359,6.974 7.101,6.193 7.018,-0.084 12.73,4.305 13.56,4.697 0.586,0.275 0.991,0.055 0.971,-0.533 -0.033,-0.937 -0.577,-9.037 -2.928,-12.091 -2.107,-3.624 -6.979,-8.917 -14.267,-7.516 -7.74,2.975 -0.377,7.289 0.087,7.462"
           style="fill:#1c6434;fill-opacity:1;fill-rule:nonzero;stroke:none;stroke-width:0.1"
           id="path34" /><path
           d="m 36.062841,206.55602 c 0.3282,-0.841 0.5196,-1.494 0.8274,-2.087 1.0039,-1.933 5.7597,-5.254 6.3398,-5.787 1.2324,-1.131 4.5219,-4.726 4.7192,-5.422 1.8425,-2.713 -0.4512,-6.239 -1.7903,-6.428 -0.7035,-0.099 -2.0562,-0.04 -2.807,-0.124 -0.2246,-0.942 -0.0016,-2.345 -0.6606,-3.22 -1.1898,-1.581 -3.3054,-2.109 -5.1195,-1.321 -0.6222,0.27 -3.9238,2.729 -4.4637,4.298 -1.6878,3.587 -1.7289,5.527 -1.4074,8.026 0.0457,0.596 0.9086,5.472 1.4977,7.243 0.575,1.729 1.5469,3.296 2.8644,4.822"
           style="fill:#1c6434;fill-opacity:1;fill-rule:nonzero;stroke:none;stroke-width:0.1"
           id="path36" /><path
           d="m 145.71484,127.03102 c -3.026,-1.246 -5.706,-2.655 -8.644,-3.381 -0.958,-0.238 -1.956,-0.409 -2.939,-0.425 -2.032,-0.032 -4.064,0.043 -6.018,0.756 -0.856,0.311 -1.516,0.798 -2.081,1.52 -1.258,1.612 -1.792,3.463 -1.88,5.449 -0.091,2.052 1.866,4.053 3.933,4.155 0.218,0.011 0.429,0.168 0.702,0.282 -0.164,0.223 -0.211,0.354 -0.301,0.397 -1.049,0.52 -1.217,0.697 -1.021,1.805 0.414,2.34 1.549,4.168 3.907,5.001 0.285,0.101 0.64,0.143 0.927,0.072 2.61,-0.642 4.852,-1.817 6.04,-4.406 0.814,-1.773 1.635,-3.545 2.387,-5.346 0.808,-1.935 2.157,-3.428 3.7,-4.783 0.381,-0.335 0.772,-0.658 1.288,-1.096"
           style="fill:#1c6434;fill-opacity:1;fill-rule:nonzero;stroke:none;stroke-width:0.1"
           id="path38" /><path
           d="m 146.63084,218.73102 c 5.356,4.529 8.493,0.35 10.199,0.385 4.034,-0.495 4.883,-0.872 11.159,4.514 0.107,-0.641 -0.936,-12.22 -8.752,-17.835 -3.248,-2.492 -10.722,-0.439 -9.358,3.633 1.101,2.642 0.496,0.936 -1.7,1.705 -3.474,1.213 -2.654,6.662 -1.548,7.598"
           style="fill:#1c6434;fill-opacity:1;fill-rule:nonzero;stroke:none;stroke-width:0.1"
           id="path40" /><path
           d="m 30.074941,179.90302 c 0.8547,-0.957 5.6793,-4.097 6.7766,-4.446 1.2898,-0.411 6.9977,-2.588 8.0016,-4.096 0.8504,-1.277 0.9793,-2.609 0.6531,-4.093 -0.4031,-1.833 -3.1258,-2.803 -4.9203,-3.308 -0.3024,-0.085 1.073,-2.972 -0.7559,-5.048 -1.2308,-2.436 -6.0234,-1.203 -7.7074,0.349 -0.6578,0.606 -2.6488,4.597 -2.9016,6.599 -1.2683,6.77 0.3832,13.286 0.8539,14.043"
           style="fill:#1c6434;fill-opacity:1;fill-rule:nonzero;stroke:none;stroke-width:0.1"
           id="path44" /><path
           d="m 102.54454,191.89102 c -0.2899,3.457 -2.683999,5.935 -9.015999,10.161 -3.9289,2.751 -3.2809,4.411 -3.2942,5.303 0.9567,3.145 2.7731,4.879 5.1504,5.19 2.2051,0.143 2.4887,-0.271 3.4945,-1.407 0.1657,0.375 -0.3812,3.738 4.501999,4.472 4.2406,0.546 4.7406,-6.504 4.5816,-8.315 0.005,-8.189 -5.1047,-15.293 -5.4183,-15.404"
           style="fill:#1c6434;fill-opacity:1;fill-rule:nonzero;stroke:none;stroke-width:0.1"
           id="path46" /><path
           d="m 122.27784,239.60502 c -0.142,-0.127 -4.128,-0.577 -4.83,0.083 -0.912,0.858 -2.312,2.477 -0.912,5.988 0.631,1.122 1.077,2.145 2.399,2.905 0.546,0.39 4.363,3.199 13.338,2.432 0.117,-0.01 4.331,-0.219 7.29,-3.812 0.291,-0.363 -5.23,-1.445 -6.718,-4.407 -1.022,-1.752 -0.205,-7.039 -5.236,-7.89 -8.097,-0.035 -5.219,4.579 -5.331,4.701"
           style="fill:#1c6434;fill-opacity:1;fill-rule:nonzero;stroke:none;stroke-width:0.1"
           id="path48" /><path
           d="m 62.676941,208.61702 c 2.7074,-0.588 6.9105,-3.56 7.2621,-3.992 0.9672,-1.188 2.334,-5.137 1.2191,-6.417 -1.4781,-1.173 -1.5082,-1.716 -4.7285,-1.22 -0.9105,0.112 -0.5754,0.481 -0.5968,-0.512 -0.0454,-2.125 -2.3059,-4.939 -4.2747,-5.012 -0.3398,-0.013 -2.8898,0.446 -3.6628,2.382 -0.218,0.545 -3.0375,7.035 -4.22,8.757 -0.6543,0.953 -2.7129,4.443 -3.2715,5.453 -0.4578,0.825 -0.255,1.176 0.6571,1.319 0.5887,0.093 7.8105,0.07 11.616,-0.758"
           style="fill:#1c6434;fill-opacity:1;fill-rule:nonzero;stroke:none;stroke-width:0.1"
           id="path50" /><path
           d="m 79.665641,233.18002 c -1.1496,-1.484 -1.6618,-2.188 -3.4719,-1.768 -4.9527,2.055 -2.8715,8.736 -1.0496,9.919 3.1246,2.252 4.8422,5.698 5.2285,7.855 0.4723,2.637 0.8219,3.777 0.5566,4.851 1.1094,-1.672 7.9754,-6.35 7.9082,-20.206 -0.966,-4.179 -3.5355,-5.084 -5.1113,-5.49 -1.1457,0.074 -3.4195,0.387 -3.9484,2.676 -0.2867,1.24 0.0941,1.915 -0.1121,2.163"
           style="fill:#1c6434;fill-opacity:1;fill-rule:nonzero;stroke:none;stroke-width:0.1"
           id="path52" /><path
           d="m 183.92184,183.08302 c -0.407,0 -0.763,-0.007 -1.117,0.002 -1.987,0.051 -3.766,-0.416 -5.208,-1.905 -0.662,-0.684 -1.466,-1.227 -2.169,-1.875 -1.05,-0.969 -2.065,-1.975 -3.1,-2.961 -0.318,-0.302 -0.653,-0.586 -0.981,-0.878 -1.195,-1.063 -2.481,-0.877 -3.79,-0.262 -0.177,0.083 -0.405,0.194 -0.473,0.351 -0.517,1.185 -1.56,2.117 -1.665,3.506 -0.066,0.874 -0.202,1.742 -0.301,2.614 -0.048,0.418 -0.211,0.681 -0.621,0.919 -2.998,1.742 -3.341,6.103 -0.294,8.295 1.426,1.026 3.084,0.954 4.652,1.315 0.265,0.061 2.593,-0.002 4.708,-0.583 2.207,-0.549 2.028,-0.55 3.049,-0.868 2.789,-0.868 4.532,-3.015 6.182,-5.237 0.51,-0.686 1.197,-1.317 1.128,-2.433"
           style="fill:#1c6434;fill-opacity:1;fill-rule:nonzero;stroke:none;stroke-width:0.1"
           id="path54" /><path
           d="m 45.285541,152.33702 c 0.4195,1.349 0.8047,3.874 3.325,4.233 3.9445,1.086 6.3996,-7.646 6.8547,-9.348 1.1773,-4.387 3.3121,-5.361 6.0722,-6.397 0.9821,-0.586 -3.014,-1.871 -6.5675,-1.871 -11.3094,1.68 -13.9793,5.405 -14.3871,5.904 -1.4125,1.539 -1.359,3.732 0.0148,5.3 1.2422,1.419 2.7551,2.284 4.6879,2.179"
           style="fill:#1c6434;fill-opacity:1;fill-rule:nonzero;stroke:none;stroke-width:0.1"
           id="path56" /><path
           d="m 79.774941,191.08402 c 1.4516,0.126 3.4887,0.017 5.8383,-0.788 2.1422,-1.058 12.4078,-7.49 9.761,-16.527 -1.1454,-1.952 -2.9731,-2.533 -5.9457,-0.716 -0.6809,-0.56 0.9933,-5.666 -4.5133,-3.854 -4.5141,1.487 -4.5989,5.869 -4.3629,8.063 0.157,1.461 1.5875,6.924 1.0598,8.947 0,2.715 -1.327,3.524 -1.8372,4.875"
           style="fill:#1c6434;fill-opacity:1;fill-rule:nonzero;stroke:none;stroke-width:0.1"
           id="path58" /><path
           d="m 34.042941,128.03102 c 0.3574,0.135 3.1231,0.615 4.2234,-0.321 1.5454,-1.323 1.8594,-1.663 2.429,-3.643 0.4242,-1.474 -0.1274,-3.261 -1.418,-4.104 -1.132,-0.74 -9.2524,-5.193 -9.8141,-5.633 -0.8804,-0.688 -1.3558,-0.589 -1.8094,0.429 -0.2902,0.652 -4.25,8.711 -4.1796,10.409 -0.3801,2.441 0.6054,4.624 2.807,5.835 2.532,1.376 4.0879,1.291 5.3398,0.771 1.3207,-0.606 1.4391,-0.894 1.9262,-1.87 0.6055,-1.213 0.4383,-1.553 0.4957,-1.873"
           style="fill:#1c6434;fill-opacity:1;fill-rule:nonzero;stroke:none;stroke-width:0.1"
           id="path60" /><path
           d="m 138.58784,144.96402 c 0.468,-0.317 0.906,-0.767 1.437,-0.948 2.332,-0.794 4.648,-1.838 7.197,-1.427 1.322,0.214 2.652,0.562 3.888,1.07 1.723,0.708 3.321,1.72 5.046,2.42 1.549,0.629 3.115,0.533 4.443,-0.699 1.559,-1.444 1.524,-4.135 -0.06,-5.563 -0.902,-0.814 -1.817,-1.505 -3.135,-1.519 -0.606,-0.006 -1.208,-0.313 -1.963,-0.526 0.253,-0.29 0.379,-0.461 0.532,-0.606 0.731,-0.692 1.077,-1.573 1.217,-2.542 0.135,-0.93 -0.311,-1.656 -1.011,-2.167 -0.737,-0.538 -1.519,-1.167 -2.37,-1.359 -1.013,-0.229 -2.128,-0.098 -3.187,0.002 -0.62,0.058 -1.205,0.42 -1.826,0.544 -2.048,0.408 -3.653,1.599 -5.121,2.96 -2.827,2.619 -4.765,5.761 -5.288,9.657 -0.021,0.155 -0.021,0.317 -0.002,0.473 0.008,0.061 0.096,0.112 0.203,0.23"
           style="fill:#1c6434;fill-opacity:1;fill-rule:nonzero;stroke:none;stroke-width:0.1"
           id="path62" /><path
           d="m 75.337441,227.52502 c 0.1973,-0.499 -0.9492,-5.218 8.2348,-10.578 1.8012,-1.05 1.6324,-3.129 0.559,-5.028 -1.6102,-2.507 -4.4988,-1.262 -5.0371,-1.336 0.7433,-1.735 -0.3711,-4.027 -2.1442,-3.776 -17.3832,3.404 -3.3445,20.362 -1.6125,20.718"
           style="fill:#1c6434;fill-opacity:1;fill-rule:nonzero;stroke:none;stroke-width:0.1"
           id="path64" /><path
           d="m 61.928141,223.55202 c 0.0648,-1.583 -0.9621,-3.197 -2.05,-3.947 -0.6414,-0.443 -3.8032,-0.908 -5.645,1.669 -0.905,1.142 -1.1753,2.511 -0.8664,3.961 0.2743,1.285 1.0821,4.55 1.0762,4.897 -0.0355,2.236 -0.1555,4.462 -1.0476,6.565 -0.4942,1.166 -0.9625,2.342 -1.4086,3.429 0.4218,0.57 4.3004,-1.6 5.8168,-2.064 2.9929,-1.445 5.2808,-2.397 7.391,-4.472 0.5965,-0.587 1.6144,-1.095 2.8656,-5.504 0.4992,-3.697 -2.0879,-5.662 -3.8039,-5.471 -0.7852,0.086 -1.1043,-0.168 -2.3281,0.937"
           style="fill:#1c6434;fill-opacity:1;fill-rule:nonzero;stroke:none;stroke-width:0.1"
           id="path66" /><path
           d="m 21.546441,184.17202 c 0.0282,-0.483 0.6891,-1.163 -0.6222,-3.353 -1.1332,-1.758 -4.2567,-1.94 -5.8914,-0.693 -1.98442,1.513 -3.18872,3.603 -3.68012,5.978 -0.38516,1.857 -0.45625,10.97 0.8914,13.614 0.71875,1.41 1.74883,1.795 2.61292,0.887 0.9847,-1.036 2.8429,-4.678 3.8363,-5.706 1.8906,-1.982 5.593,-2.466 7.0102,-4.603 3.3472,-4.024 0,-7.783 -4.1571,-6.124"
           style="fill:#1c6434;fill-opacity:1;fill-rule:nonzero;stroke:none;stroke-width:0.1"
           id="path68" /><path
           d="m 33.805441,143.28902 c 0.2492,-0.341 1.0734,-0.289 1.4387,-2.089 -0.0735,-1.008 0.543,-3.732 -2.4692,-4.817 -7.5566,-0.896 -5.1621,3.025 -10.1718,5.205 -2.1325,1.288 -5.8727,-1.082 -6.05,-0.889 -0.1852,0.201 1.6965,4.885 2.5965,6.29 3.1789,5.754 9.6023,5.3 12.8382,5.091 2.4785,-0.452 2.7137,-1.222 3.1633,-1.848 1.1098,-1.547 1.5395,-3.311 0.9891,-5.183 -0.2633,-0.894 -1.3028,-1.802 -2.3348,-1.76"
           style="fill:#1c6434;fill-opacity:1;fill-rule:nonzero;stroke:none;stroke-width:0.1"
           id="path70" /><path
           d="m 142.02884,208.37502 c -0.156,-0.409 -0.814,-3.664 0.159,-8.54 0.498,-6.33 -0.857,-7.196 -2.64,-8.422 -1.311,-0.903 -3.405,-1.082 -4.474,0.052 -0.381,0.404 -1.839,1.626 -1.085,3.195 -0.205,-1.407 -1.46,-2.389 -2.634,-2.855 -0.72,-0.286 -7.935,1.865 -2.703,10.698 2.199,2.782 4.152,3.716 5.212,4.173 1.529,0.657 6.9,1.885 8.165,1.699"
           style="fill:#1c6434;fill-opacity:1;fill-rule:nonzero;stroke:none;stroke-width:0.1"
           id="path72" /><path
           d="m 74.846041,173.81102 c -0.3953,-0.25 -4.8558,-1.778 -6.9144,-2.268 -2.6438,-0.628 -11.0707,-2.215 -13.891,7.202 0.0547,3.593 2.2343,4.362 3.239,4.949 1.7086,0.546 3.3879,-2.036 3.6328,-2.229 0.0911,0.595 -0.7429,4.541 1.3715,5.842 2.1594,1.341 3.9129,0.404 5.3164,-1.961 1.0735,-7.266 2.7067,-9.282 3.7004,-9.664 0.825,-0.317 3.0117,-1.606 3.5453,-1.871"
           style="fill:#1c6434;fill-opacity:1;fill-rule:nonzero;stroke:none;stroke-width:0.1"
           id="path74" /><path
           d="m 149.20584,193.19302 c -0.125,0.095 -0.181,0.161 -0.251,0.186 -2.248,0.812 -3.045,2.654 -3.402,4.799 -0.188,1.133 0.588,2.564 1.654,3.072 0.756,0.361 1.509,0.735 2.286,1.047 0.475,0.19 0.985,0.328 1.491,0.396 1.108,0.149 5.253,-0.507 5.507,-0.592 1.815,-0.608 3.637,-1.198 5.459,-1.782 0.608,-0.195 1.241,-0.318 1.837,-0.542 0.728,-0.272 0.874,-0.717 0.545,-1.41 -0.034,-0.072 -0.077,-0.143 -0.128,-0.204 -1.211,-1.457 -1.955,-3.194 -2.887,-4.818 -1.132,-1.973 -2.628,-3.592 -4.505,-4.877 -1.188,-0.812 -2.451,-1.322 -3.913,-1.278 -0.599,0.018 -1.2,-0.043 -1.799,-0.028 -1.261,0.031 -2.079,0.753 -2.312,2.004 -0.311,1.672 -0.26,2.189 0.418,4.027"
           style="fill:#1c6434;fill-opacity:1;fill-rule:nonzero;stroke:none;stroke-width:0.1"
           id="path76" /><path
           d="m 89.005841,124.93902 c 0.5219,0.208 2.4324,1.919 6.2309,-0.076 2.0781,-1.844 1.4019,-4.789 0.4129,-6.633 -0.9583,-1.787 -2.1063,-3.489 -4.0872,-5.326 -0.3781,-0.555 -7.6617,-5.262 -7.8851,-5.326 -0.5902,-0.167 1.6805,5.687 0.2473,8.298 -0.768,2.101 -1.854,2.482 -2.8485,4.418 -0.3637,0.707 -0.7074,4.796 0.0973,6.014 1.5156,2.294 3.8855,2.534 5.9387,1.535 1.7253,-1.067 1.6871,-2.456 1.8937,-2.904"
           style="fill:#1c6434;fill-opacity:1;fill-rule:nonzero;stroke:none;stroke-width:0.1"
           id="path78" /><path
           d="m 187.69984,188.17602 c 3.241,-2.49 5.593,-5.206 5.73,-9.288 0.014,-0.437 0.085,-0.873 0.133,-1.308 0.202,-1.856 -0.041,-3.631 -0.942,-5.29 -0.019,-0.035 -0.051,-0.068 -0.056,-0.105 -0.311,-1.867 -1.704,-3.12 -2.623,-4.642 -0.556,-0.919 -1.392,-1.265 -2.417,-1.273 -2.161,-0.016 -4.092,0.536 -5.653,2.141 -0.269,0.277 -0.753,0.414 -1.158,0.473 -0.506,0.073 -1.035,0.02 -1.552,-0.017 -1,-0.07 -1.793,0.375 -2.46,1.034 -0.822,0.812 -0.464,2.755 0.58,3.517 0.51,0.371 1.006,0.767 1.468,1.195 0.707,0.657 1.526,1.099 2.362,1.573 1.498,0.849 3.136,1.609 4.005,3.28 0.214,0.412 0.574,0.762 0.914,1.09 0.91,0.878 1.37,1.912 1.393,3.194 0.024,1.389 0.168,2.777 0.276,4.426"
           style="fill:#1c6434;fill-opacity:1;fill-rule:nonzero;stroke:none;stroke-width:0.1"
           id="path80" /><path
           d="m 120.70584,208.54202 c -0.26,-0.166 -1.909,-2.556 -5.006,-2.364 -4.114,0.648 -2.443,6.255 -0.767,7.884 0.741,0.72 4.216,4.162 4.744,6.635 0.14,0.657 0.785,6.063 0.785,6.606 1.391,-0.074 3.667,-2.92 4.348,-3.673 1.572,-1.69 1.678,-2.015 3.234,-6.621 0.548,-1.215 2.202,-5.119 -0.286,-9.908 -1.651,-2.807 -6.393,0.26 -7.052,1.441"
           style="fill:#1c6434;fill-opacity:1;fill-rule:nonzero;stroke:none;stroke-width:0.1"
           id="path82" /><path
           d="m 145.35284,183.46402 c 1.47,0.271 2.649,-0.226 3.612,-1.332 0.462,-0.531 0.761,-1.095 0.808,-1.814 0.068,-1.057 0.483,-2.129 -0.221,-3.129 -0.136,-0.193 -0.234,-0.429 -0.409,-0.575 -1.247,-1.048 -2.48,-2.118 -3.782,-3.095 -0.592,-0.445 -1.302,-0.785 -2.009,-1.013 -2.175,-0.703 -4.442,-0.913 -6.703,-1.164 -1.584,-0.177 -3.158,-0.35 -4.783,-0.178 -0.106,0.68 0.274,1.105 0.705,1.446 0.81,0.639 1.134,1.495 1.312,2.468 0.314,1.719 0.842,3.419 0.959,5.15 0.093,1.361 0.641,2.531 0.96,3.792 0.196,0.778 0.675,1.343 1.352,1.751 2.209,1.334 4.47,1.606 6.814,0.348 1.116,-0.599 1.551,-1.387 1.385,-2.655"
           style="fill:#1c6434;fill-opacity:1;fill-rule:nonzero;stroke:none;stroke-width:0.1"
           id="path84" /><path
           d="m 175.83884,132.38502 c -0.252,-2.157 -0.21,-2.989 -1.29,-4.507 -0.451,-0.635 -2.523,-1.373 -3.438,-1.053 -3.635,1.27 -4.959,4.663 -4.096,7.846 0.344,1.271 0.696,2.539 1.026,3.814 0.057,0.218 0.082,0.477 0.023,0.689 -0.322,1.165 -0.758,2.234 -1.818,2.993 -0.861,0.616 -1.595,1.409 -2.471,2.2 0.794,0.508 1.514,0.652 2.26,0.658 2.806,0.02 5.597,-0.192 8.275,-1.069 2.374,-0.776 4.536,-1.975 6.276,-3.825 0.866,-0.922 0.999,-3.209 0.449,-4.244 -0.759,-1.43 -0.703,-2.565 -2.229,-3.303 -0.677,-0.573 -1.953,-0.495 -2.967,-0.199"
           style="fill:#1c6434;fill-opacity:1;fill-rule:nonzero;stroke:none;stroke-width:0.1"
           id="path86" /><path
           d="m 110.02684,221.79602 c -0.034,-0.02 -0.089,-0.033 -0.099,-0.06 -0.374,-1.158 -2.925,-1.489 -3.957,-1.287 -5.2533,1.652 -2.799,7.014 -2.6509,7.282 1.7189,3.108 1.6599,4.154 3.8069,6.177 1.858,2.135 4.251,4.003 8.049,3.604 0,0 -1.237,-0.879 -1.33,-3.297 0.093,-6.087 7.266,-11.123 0.963,-14.283 -1.493,-0.731 -2.9,-0.443 -3.979,0.826 -0.283,0.333 -0.536,0.691 -0.803,1.038"
           style="fill:#1c6434;fill-opacity:1;fill-rule:nonzero;stroke:none;stroke-width:0.1"
           id="path88" /><path
           d="m 54.906641,116.13602 c -0.9399,-1.168 -4.55,-1.276 -5.6641,1.678 -0.0922,0.582 -0.132,1.172 -0.1933,1.734 -0.8266,0.073 -1.5801,0.061 -2.295,0.221 -1.4945,0.336 -3.3988,1.366 -3.3886,3.586 0.275,3.284 4.3687,4.736 6.2847,5.157 1.4754,0.323 10.166,2.348 13.1274,2.462 0.3179,0.012 0.6379,-0.004 0.9551,-0.024 0.0644,-0.005 -7.8555,-13.607 -8.8262,-14.814"
           style="fill:#1c6434;fill-opacity:1;fill-rule:nonzero;stroke:none;stroke-width:0.1"
           id="path90" /><path
           d="m 57.734341,107.15102 c 0.4297,0.384 5.9988,3.745 6.2293,8.583 0.1363,2.873 -0.2305,4.19 2.3766,6.618 1.0594,0.822 2.6269,0.544 3.3922,-0.472 0.4632,-0.616 0.6039,-2.06 1.1011,-2.507 0.7422,0.458 0.3852,1.652 1.8129,2.526 1.7223,0.7 3.5961,-0.162 4.3532,-1.856 0.4132,-0.925 1.1546,-4.672 -1.8176,-9.092 -2.3879,-2.421 -6.5532,-3.828 -9.3578,-4.293 -1.5524,-0.258 -7.67,0.262 -8.0899,0.493"
           style="fill:#1c6434;fill-opacity:1;fill-rule:nonzero;stroke:none;stroke-width:0.1"
           id="path92" /><path
           d="m 42.703841,214.19702 c -0.2101,-0.176 -2.4324,-2.861 -4.2402,-3.033 -1.9883,0.328 -2.9512,2.762 -3.0672,3.907 -0.0945,0.93 -1.0195,4.77 0.2957,7.567 1.261,2.673 2.9176,4.805 3.7274,5.721 1.7148,1.217 3.3949,2.785 5.7,2.075 -0.1961,-0.347 -1.7907,-3.882 -1.2657,-5.479 0.1454,-0.442 0.4024,-0.856 0.6586,-1.25 1.1715,-1.798 2.4637,-3.527 3.5172,-5.39 1.2539,-2.218 0.6039,-3.649 -1.3933,-5.124 -1.7922,-0.982 -3.6586,0.714 -3.9325,1.006"
           style="fill:#1c6434;fill-opacity:1;fill-rule:nonzero;stroke:none;stroke-width:0.1"
           id="path94" /><path
           d="m 98.666041,224.49202 c 1.455799,-0.502 1.882799,-2.732 1.786299,-3.848 0,-0.867 -0.922699,-2.296 -2.171499,-3.058 -2.0852,-0.782 -5.202,0.133 -6.0949,0.569 -2.4672,1.205 -7.8778,2.1 -7.9172,2.104 -1.5328,0.151 -1.8574,0.794 -0.9516,2.01 0.4731,0.635 7.4153,7.45 12.7551,9.024 2.9492,0.828 4.571899,-2.533 4.581999,-2.846 0.4024,-2.238 -1.203499,-2.947 -1.988199,-3.955"
           style="fill:#1c6434;fill-opacity:1;fill-rule:nonzero;stroke:none;stroke-width:0.1"
           id="path96" /><path
           d="m 167.00784,244.04502 c -4.128,-8.678 2.964,-6.806 0.401,-15.516 -0.586,-1.03 -1.97,-1.988 -3.151,-1.851 -2.479,0.585 -2.56,2.336 -2.754,2.732 -0.374,-0.374 -0.322,-0.707 -0.771,-1.982 -0.667,-0.949 -2.257,-1.872 -4.789,-0.44 -1.769,1.706 -3.963,6.44 1.432,12 0.318,0.329 2.885,3.456 5.119,4.09 4.789,1.431 4.907,1.244 4.513,0.967"
           style="fill:#1c6434;fill-opacity:1;fill-rule:nonzero;stroke:none;stroke-width:0.1"
           id="path98" /><path
           d="m 100.34764,240.50602 c -0.483999,-0.212 -0.848399,-0.371 -1.210899,-0.533 -2.6071,-1.168 -4.4485,0.43 -4.8504,2.532 -0.3836,2.007 0.532,3.645 2.2769,4.837 1.9891,1.36 4.219599,2.202 6.330499,3.296 1.6331,0.848 3.1161,1.915 4.4291,3.21 0.413,0.408 0.805,0.444 1.048,-0.054 0.251,-0.515 -0.733,-12.08 -1.111,-14.598 -0.092,-0.62 -0.364,-1.223 -0.614,-1.808 -0.876,-1.238 -2.043,-1.765 -3.1248,-1.606 -2.7222,0.049 -2.9117,3.841 -3.1734,4.724"
           style="fill:#1c6434;fill-opacity:1;fill-rule:nonzero;stroke:none;stroke-width:0.1"
           id="path100" /><path
           d="m 28.167941,208.11202 c 0.2949,-0.589 0.7656,-1.538 0.9551,-1.972 0.582,-1.335 0.1539,-2.847 -1.0469,-3.673 -1.7336,-1.416 -4.7906,-0.502 -5.7851,0.745 -0.3461,0.385 -1.4082,1.266 -2.1442,3.434 -0.4062,1.534 -0.541,1.588 -0.8969,3.382 -1.4273,2.812 -4.275,3.83 -4.8246,4.734 -0.60622,0.995 -0.0675,1.299 1.0727,1.582 2.2617,0.562 4.5344,0.357 6.7887,0.156 4.8582,-0.769 7.3105,-1.494 8.3007,-3.241 1.0118,-1.786 0.3895,-4.371 -0.9367,-5.067 -0.3804,-0.2 -1.0097,0.152 -1.4828,-0.08"
           style="fill:#1c6434;fill-opacity:1;fill-rule:nonzero;stroke:none;stroke-width:0.1"
           id="path102" /></g></g><g
       inkscape:groupmode="layer"
       id="layer2"
       inkscape:label="tree icon"
       style="display:none" /></g><g
     inkscape:groupmode="layer"
     id="layer1"
     inkscape:label="Butterfly"
     style="display:inline"
     transform="matrix(1.3333333,0,0,-1.3333333,0,339.65333)"><g
       id="g1152"
       transform="translate(-138.7486,19.238252)"><path
         d="m 355.36784,112.00302 c -0.004,-0.796 -1.057,-6.871 0.978,-8.556 1.788,-1.775 5.082,-2.453 5.911,-0.041 1.097,3.192 -2.423,5.805 -4.319,7.019 -0.632,0.404 -1.66,1.112 -2.57,1.578 z m -2.312,0.898 c -2.08,0.081 -5.36,-0.062 -7.293,-1.083 -0.972,-0.513 -3.78,-1.686 -3.028,-4.408 0.606,-1.324 3.844,-1.924 6.977,-0.257 2.363,1.257 3.492,3.106 3.344,5.748 z m -5.369,17.711 c -0.783,0.001 -1.929,-3.558 -3.053,-6.55 -3.743,-9.578 8.202,-9.413 8.202,-7.329 0.385,4.921 -3,13.895 -5.149,13.879 z m 14.011,-9.688 c -4.624,-2.587 -5.151,-4.349 -5.151,-4.349 -1.014,-2.807 2.09,-4.169 3.056,-4.485 5.219,-1.749 11.757,8.862 9.141,12.027 -1.445,0.632 -7.027,-3.214 -7.046,-3.193 z m -16.671,-6.689 c -0.811,0.886 -1.471,1.711 -2.236,2.422 -1.489,1.386 -1.651,3.084 -1.351,4.944 0.35,2.184 1.2,4.213 1.937,6.274 0.414,1.16 1.712,4.017 3.529,4.678 2.823,0.349 4.746,-1.61 6.971,-8.395 0.38,-1.635 1.251,-3.468 2.234,-3.661 0.548,-0.103 3.166,1.69 3.649,1.988 1.829,1.129 4.697,3.38 8.135,4.179 1.804,0.331 3.244,-0.18 3.455,-2.6 0.264,-2.178 0,-4.321 -0.811,-6.349 -1.121,-2.807 -2.291,-5.002 -7.634,-7.47 -0.554,0.165 0.864,-2.632 1.105,-4.238 0.375,-2.029 -0.443,-4.051 -1.77,-5.497 -0.692,-0.754997 -3.462,-1.187897 -5.342,-0.051 -3.435,1.928 -2.987,3.652 -4.032,5.678 -2.902,-2.446 -11.689,-3.302 -12.635,1.016 -0.65,4.865 4.362,6.925 4.796,7.082"
         style="fill:#6f1812;fill-opacity:1;fill-rule:nonzero;stroke:none;stroke-width:0.1"
         id="path104" /><path
         d="m 353.40984,131.88902 c 2.847,0.106 4.695,-2.889 4.094,-6.622 0.522,0.344 0.867,1.601 2.453,3.119 1.411,1.235 4.996,0.564 4.442,0.465 0.065,-0.119 -1.875,-0.496 -3.813,-2.516 -1.51,-1.53 -3.513,-5.195 -4.605,-3.814 -1.218,1.651 0,3.137 -0.726,6.479 -0.081,0.374 -1.402,2.196 -1.845,2.889"
         style="fill:#6f1812;fill-opacity:1;fill-rule:nonzero;stroke:none;stroke-width:0.1"
         id="path106" /></g></g></svg>
